<?xml version="1.0" encoding="UTF-8"?>
<svg id="Layer_1" data-name="Layer 1" xmlns="http://www.w3.org/2000/svg" viewBox="0 0 44.98 50.81">
  <defs>
    <style>
      .cls-1 {
        fill: #0d7c76;
      }
    </style>
  </defs>
  <path class="cls-1" d="M41.37,36.52c0,1.51-.94,2.83-2.49,2.84l-32.41.03c-1.7,0-2.87-1.11-2.86-2.82l.04-22.68c0-1.76,1.52-2.47,3.06-2.47h31.55c1.54,0,3.07.72,3.07,2.47l.04,22.64ZM24.82,25.65l14.52-12.03c-.26-.32-.56-.3-.96-.3H6.47c-.35,0-.61,0-.83.31l14.76,12.2c1.38,1.14,3.04.96,4.42-.18ZM18.5,26.75l-12.95-10.69v20.36s12.95-9.66,12.95-9.66ZM39.43,36.39v-20.34s-12.95,10.7-12.95,10.7l12.95,9.64ZM24.87,27.94c-1.61.83-3.25.75-4.77,0l-12.74,9.52h30.27s-12.76-9.53-12.76-9.53Z"/>
</svg>