<?xml version="1.0" encoding="UTF-8"?>
<svg id="Layer_1" data-name="Layer 1" xmlns="http://www.w3.org/2000/svg" viewBox="0 0 608.68 246.13">
  <defs>
    <style>
      .cls-1 {
        fill: #0d7c76;
      }
    </style>
  </defs>
  <path class="cls-1" d="M365.81,205.43c-1.11,0-5.81,4.43-15.5,4.43-15.5,0-28.52-14.4-28.52-39.31,0-65.61,26.85-122.09,44.57-149.5,3.6-5.54,7.48-10.8,7.48-13.01,0-1.66-.83-3.04-3.6-3.04-3.05,0-6.92,2.21-13.01,6.37-44.02,29.9-112.13,154.21-119.05,171.65,0-73.37,10.8-130.95,16.06-155.32l1.11-5.54c1.11-4.43,1.66-6.64,1.66-7.2,0-2.21-1.66-4.15-4.98-4.15-.83,0-2.49,2.21-4.98,5.81l-3.05,4.98c-3.05,4.71-6.37,10.8-10.52,17.72-40.7,69.49-106.31,194.35-183.83,194.35-26.02,0-37.93-16.89-40.14-27.69-.28-1.66-.83-2.77-1.94-2.77-1.38,0-2.21,1.11-2.21,2.49,0,12.46,15.23,35.44,44.02,35.44,83.06,0,150.33-130.68,195.18-206.53,0,0-13.57,62.85-14.12,142.58,0,10.52.83,16.89,3.32,16.89,4.15,0,8.03-1.11,9.69-5.26,8.31-19.38,67.83-130.68,116-171.93-14.12,24.92-45.4,83.61-45.4,153.65,0,32.39,16.61,44.57,33.22,44.57,12.46,0,20.49-6.37,20.49-7.47s-.83-2.21-1.94-2.21Z"/>
  <path class="cls-1" d="M580.33,140.97c-1.68,1.09-22.71,25.07-40.49,25.14-5.79-.03-12.36-3.11-12.36-15.5,0-1.34,0-2.68.15-4.32.07-.77.41-1.48.97-2.01,36.57-34.88,74.75-86.56,74.75-104.96,0-8.58-5.26-13.01-12.18-13.01-.04,0-.07,0-.11,0-.03,0-.05,0-.08,0-21.05,0-44.92,40.27-59.03,76.86-.71,1.85-2.95,2.6-4.62,1.52-2.52-1.63-6.3-3.07-11.75-3.07-.02,0-.05,0-.07,0-.04,0-.08,0-.12,0-16.39,0-40.22,17.71-51.15,38.01-.12.22-.25.41-.42.6-2.98,3.27-24.38,26.11-40.82,26.17-5.18-.03-7.64-2.25-7.64-6.92,0-12.73,26.85-31.01,26.85-44.57,0-7.2-4.43-11.07-10.52-11.07-.03,0-.06,0-.1,0-.03,0-.06,0-.09,0-12.95,0-47.86,26.28-71.34,47.93-2.65,2.44-6.66-.76-4.88-3.89,1.93-3.42,3.89-6.61,5.57-8.83.17-.22.36-.41.57-.58,35.23-27.46,99.07-76.51,99.07-99.97,0-7.48-5.26-13.57-14.12-13.57-.04,0-.08,0-.12,0-.02,0-.05,0-.07,0-27.96,0-60.63,46.79-87.21,97.73-11.07,21.32-24.36,49.28-24.36,52.05,0,2.21,2.49,4.15,4.43,4.15.02,0,.04,0,.06,0,.04,0,.08,0,.12,0,2.21,0,4.15-2.21,6.92-5.26,22.65-24.31,71.49-62.67,84.08-62.84,2.17.04,4.06,1.42,4.06,4.15,0,11.07-26.85,28.24-26.85,44.85,0,8.03,5.54,12.74,13.57,12.74.04,0,.07,0,.11,0,.03,0,.05,0,.08,0,.11,0,.22-.01.33-.01.37,0,.74-.02,1.11-.04,10.64-.6,21.91-7.69,30.58-14.71,2.1-1.7,5.17-.19,5.16,2.51,0,.03,0,.05,0,.08,0,10.8,8.03,18.27,17.44,18.27.04,0,.08,0,.11,0,.02,0,.05,0,.07,0,9.33,0,23.72-8.96,39.61-22.49,1.83-1.56,4.65-.55,5.13,1.8,2.11,10.19,9.29,14.6,18.47,14.6.03,0,.07,0,.1,0,.03,0,.05,0,.08,0,.13,0,.26-.01.38-.02.33,0,.65-.02.98-.04,13.3-.79,25.86-10.67,34.63-18.99.18-.17,3.03-3.19,3.19-3.39,9.91-12.07,2.76-9.96,1.76-9.07ZM465.74,161.13c0-23.78,32.04-53.63,50.87-53.71,5.9.03,8.99,2.31,10.82,4.66.64.83.8,1.93.47,2.92-3.45,10.3-5.96,19.86-7.1,27.84-.1.73-.45,1.4-.99,1.89-17.61,16.14-33.8,27.38-43.35,27.46-5.78-.04-10.71-4.18-10.71-11.07Z"/>
</svg>