<?xml version="1.0" encoding="UTF-8"?>
<svg id="Layer_1" data-name="Layer 1" xmlns="http://www.w3.org/2000/svg" viewBox="0 0 44.98 50.81">
  <defs>
    <style>
      .cls-1 {
        fill: #0d7c76;
      }
    </style>
  </defs>
  <path class="cls-1" d="M26.42,40.59h-7.71c-1.22,0-2.36-.03-3.56-.15-1.31-.13-2.55-.44-3.71-1.07-1.34-.72-2.44-1.81-3.16-3.15-.66-1.23-.97-2.55-1.08-3.93s-.13-2.66-.13-4.04v-6.15c0-1.26.03-2.44.14-3.69.11-1.36.42-2.64,1.07-3.85.7-1.3,1.76-2.37,3.05-3.09s2.57-1.01,3.97-1.14c1.16-.11,2.25-.13,3.41-.13h7.36c1.27,0,2.47.03,3.73.14,4.5.42,7.47,3.19,7.95,7.71.14,1.28.16,2.51.16,3.8v6.86c0,1.3-.03,2.53-.15,3.82-.13,1.37-.46,2.66-1.15,3.85-.77,1.35-1.92,2.42-3.31,3.11-1.1.54-2.25.82-3.46.94l-3.43.15ZM25.36,37.87c1.37,0,2.67-.03,4.03-.13,3.36-.27,5.33-2.1,5.62-5.48.11-1.27.14-2.49.14-3.77v-6.53c0-1.14-.04-2.22-.13-3.34-.28-3.35-2.18-5.21-5.52-5.52-1-.09-1.94-.13-2.94-.13h-8.13c-.92,0-1.79.04-2.7.11-.72.05-1.39.17-2.08.4-1.4.46-2.55,1.49-3.12,2.86-.31.75-.47,1.51-.53,2.32-.09,1.08-.12,2.1-.12,3.19v7.46s.11,2.7.11,2.7c.04.91.23,1.77.6,2.6.63,1.41,1.85,2.41,3.33,2.83.6.17,1.16.27,1.78.32,1.37.1,2.7.13,4.09.12h5.6Z"/>
  <path class="cls-1" d="M28.35,30.67c-3.26,3.51-8.87,3.36-11.95-.27-2.5-2.95-2.43-7.28.15-10.16,3.15-3.5,8.66-3.52,11.84-.05,2.72,2.96,2.72,7.52-.04,10.48ZM26.15,28.97c2-1.98,1.97-5.19-.01-7.15-2.17-2.14-5.75-1.95-7.67.43-1.52,1.89-1.48,4.59.1,6.42,1.95,2.27,5.44,2.42,7.58.3Z"/>
  <path class="cls-1" d="M30.84,19.11c-1.11.07-1.99-.83-1.95-1.87s.98-1.89,2.06-1.76c.96.11,1.65.9,1.64,1.82s-.74,1.75-1.75,1.81Z"/>
</svg>