<?xml version="1.0" encoding="UTF-8"?>
<svg id="Layer_1" data-name="Layer 1" xmlns="http://www.w3.org/2000/svg" viewBox="0 0 44.98 50.81">
  <defs>
    <style>
      .cls-1 {
        fill: #0d7c76;
        stroke: #0d7c76;
        stroke-miterlimit: 10;
        stroke-width: .49px;
      }
    </style>
  </defs>
  <path class="cls-1" d="M27.63,25.52c-1.5.1-2.61,1.46-2.61,2.91v11.33c-.08.46-.43.72-.87.84l-6.02-.02c-.38,0-.84-.4-.84-.79v-19.43c.1-.48.48-.79.96-.86l5.3.02c.48,0,.88.48.94.91l.02.8c1.27-1.38,3.04-2.18,4.92-2.24h1.58c2.91.09,5.46,1.9,6.47,4.63.28.77.47,1.57.47,2.42v13.61c-.07.49-.41.84-.89.95h-5.42c-.48-.11-.82-.46-.9-.95v-11.41c0-.52-.12-1.03-.4-1.45-.59-.89-1.64-1.33-2.71-1.26ZM29.16,24.67c.8.26,1.47.71,1.95,1.37.4.54.55,1.16.64,1.83l.05,6.15.03,5.55h5.1s0-13.53,0-13.53c-.07-1.36-.5-2.63-1.33-3.69-1.01-1.3-2.49-2.15-4.14-2.3-.8-.07-1.58-.07-2.38,0-1.61.14-3.19,1.03-4.13,2.35l-1.42,1.41v-3.29s-5.16,0-5.16,0v19.05s5.68,0,5.68,0v-11.17c.03-.96.37-1.85.99-2.56,1.03-1.18,2.62-1.64,4.13-1.15Z"/>
  <path class="cls-1" d="M13.42,40.59h-4.52c-.72-.12-1.25-.67-1.36-1.39v-18.31c.01-.71.67-1.38,1.35-1.38h4.41c.86,0,1.46.8,1.46,1.62l-.02,18.05c0,.73-.66,1.28-1.33,1.41ZM13.29,39.56c.19,0,.44-.21.44-.41v-18.14c0-.26-.26-.49-.5-.49h-4.27c-.26.01-.39.34-.39.57v17.98c0,.23.24.49.45.49h4.26Z"/>
  <path class="cls-1" d="M13.7,17.58c-.77.63-1.66.9-2.64.89-1.18,0-2.26-.56-3.03-1.44-1.4-1.62-1.33-3.99.14-5.53.84-.88,1.99-1.32,3.22-1.27,1.12.05,2.12.55,2.86,1.39.61.69.99,1.52,1.03,2.45.06,1.38-.5,2.64-1.58,3.52ZM13.07,16.78c.69-.55,1.09-1.29,1.17-2.16.12-1.43-.75-2.78-2.13-3.22-.85-.27-1.79-.16-2.55.3-1.63.98-1.99,3.21-.77,4.65.55.65,1.31,1.01,2.15,1.08.79.07,1.5-.14,2.13-.64Z"/>
</svg>