<?xml version="1.0" encoding="UTF-8"?>
<svg id="Layer_1" data-name="Layer 1" xmlns="http://www.w3.org/2000/svg" viewBox="0 0 1082.3 288">
  <defs>
    <style>
      .cls-1 {
        fill: #0d7c76;
      }
    </style>
  </defs>
  <path class="cls-1" d="M364.81,202.83c-1.11,0-5.81,4.43-15.5,4.43-15.5,0-28.52-14.4-28.52-39.31,0-65.61,26.85-122.09,44.57-149.5,3.6-5.54,7.48-10.8,7.48-13.01,0-1.66-.83-3.04-3.6-3.04-3.05,0-6.92,2.21-13.01,6.37-44.02,29.9-112.13,154.21-119.05,171.65,0-73.37,10.8-130.95,16.06-155.32l1.11-5.54c1.11-4.43,1.66-6.64,1.66-7.2,0-2.21-1.66-4.15-4.98-4.15-.83,0-2.49,2.21-4.98,5.81l-3.05,4.98c-3.05,4.71-6.37,10.8-10.52,17.72-40.7,69.49-106.31,194.35-183.83,194.35-26.02,0-37.93-16.89-40.14-27.69-.28-1.66-.83-2.77-1.94-2.77-1.38,0-2.21,1.11-2.21,2.49,0,12.46,15.23,35.44,44.02,35.44,83.06,0,150.33-130.68,195.18-206.53,0,0-13.57,62.85-14.12,142.58,0,10.52.83,16.89,3.32,16.89,4.15,0,8.03-1.11,9.69-5.26,8.31-19.38,67.83-130.68,116-171.93-14.12,24.92-45.4,83.61-45.4,153.65,0,32.39,16.61,44.57,33.22,44.57,12.46,0,20.49-6.37,20.49-7.47s-.83-2.21-1.94-2.21Z"/>
  <path class="cls-1" d="M1075.18,135.56s-.04,0-.06.01c-.04,0-.08-.01-.12-.01-1.11,0-2.49,1.66-2.49,1.66-9.91,11.84-21.19,17.65-32.75,20.44.26-.81.26-1.63.26-2.72,0-17.17-9.97-26.58-9.97-38.48,0-11.07,12.46-20.76,12.46-23.81,0-1.94-2.77-4.43-4.98-4.43-.02,0-.04,0-.06,0-.04,0-.09,0-.13,0-2.77,0-7.75,6.92-12.46,15.5-4.98,8.86-13.57,21.87-24.09,33.5,0,0-.03.04-.08.11-1.48,1.73-22.68,26.11-41.35,26.19-4.94-.04-8.76-3.07-8.76-8.02,0-12.46,26.85-30.73,26.85-45.4,0-6.64-4.98-11.91-12.18-11.91-.03,0-.06,0-.09,0-.03,0-.06,0-.09,0-20.31,0-58.57,31.02-79.73,55.29,9.66-16.69,22.73-33.84,32.57-45.05,1.94-2.21,2.77-3.04,2.77-4.15,0-1.38-2.21-3.32-3.88-3.32-.02,0-.05.01-.07.01-.04,0-.08-.01-.11-.01-3.41,0-18.77,20.35-29.98,37.6-11.81,13.17-28.63,23.82-47.02,33.43,4.13-10.2,7.44-19.84,10.19-28.11,2.77-8.86,4.71-15.23,4.71-17.17,0-1.38-2.21-2.77-3.6-2.77-.02,0-.04.01-.06.01-.04,0-.09-.01-.12-.01-1.66,0-4.15,6.37-12.18,14.95-13.52,14.63-32,28.7-41.16,28.79-4.93-.04-8.21-3.36-8.21-9.41,0-22.12,33.98-54.74,61.09-54.81,8.23.04,10.98,4.72,10.98,8.3,0,3.32-1.38,5.26-1.38,6.37s.83,1.94,1.94,1.94c.02,0,.05,0,.08-.01.04,0,.07.01.11.01,1.66,0,4.98-3.88,4.98-9.41,0-5.81-3.88-13.29-18.55-13.29-.02,0-.04,0-.06,0-.04,0-.09,0-.13,0-21.84,0-49.09,20.4-60.98,41.12-5.17,5.42-26.33,26.62-40.82,26.7-6.31-.04-10.42-3.91-10.42-10.24,0-16.06,21.04-42.08,27.69-50.11,1.11-1.38,1.38-2.49,1.38-3.04,0-1.66-1.38-3.04-3.32-3.04-.02,0-.04.01-.05.01-.05,0-.09-.01-.13-.01-3.3,0-20.08,20.7-28.46,39.05-9.79,11.44-20.88,17.12-32.25,19.87.26-.81.26-1.63.26-2.72,0-17.17-9.97-26.58-9.97-38.48,0-11.07,12.46-20.76,12.46-23.81,0-1.94-2.77-4.43-4.98-4.43-.02,0-.04,0-.06,0-.04,0-.09,0-.13,0-2.77,0-7.75,6.92-12.46,15.5-4.98,8.86-13.57,21.87-24.09,33.5,0,0-.02.03-.05.06-1.03,1.23-27.91,32.81-58.54,32.88-11.3-.03-18.74-6.94-18.74-17.44,0-1.66,0-3.6.28-5.26,23.26-5.54,61.19-21.04,61.19-37.38,0-6.92-5.26-11.91-13.84-11.91-.03,0-.06,0-.09,0-.03,0-.06,0-.1,0-17.19,0-43.25,18.67-52.21,39.55-3.16,3.61-23.22,25.71-41,25.79-5.79-.03-12.36-3.11-12.36-15.5,0-1.66,0-3.32.28-5.54,36.82-34.88,75.58-87.21,75.58-105.76,0-8.58-5.26-13.01-12.18-13.01-.04,0-.07,0-.11,0-.03,0-.05,0-.08,0-21.84,0-46.72,43.35-60.58,80.97-2-2.22-6.42-5.67-14.82-5.67-.02,0-.05,0-.07,0-.04,0-.08,0-.12,0-16.47,0-40.48,17.9-51.33,38.33-1.7,1.89-24.04,26.38-41.07,26.45-5.18-.03-7.64-2.25-7.64-6.92,0-12.73,26.85-31.01,26.85-44.57,0-7.2-4.43-11.07-10.52-11.07-.03,0-.06,0-.1,0-.03,0-.06,0-.09,0-15.96,0-65.26,39.91-85.44,61.87,1.37-2.87,9.71-20.15,15.03-26.99,35.16-27.41,99.39-76.69,99.39-100.22,0-7.48-5.26-13.57-14.12-13.57-.04,0-.08,0-.12,0-.02,0-.05,0-.07,0-27.96,0-60.63,46.79-87.21,97.73-11.07,21.32-24.36,49.28-24.36,52.05,0,2.21,2.49,4.15,4.43,4.15.02,0,.04,0,.06,0,.04,0,.08,0,.12,0,2.21,0,4.15-2.21,6.92-5.26,22.65-24.31,71.49-62.67,84.08-62.84,2.17.04,4.06,1.42,4.06,4.15,0,11.07-26.85,28.24-26.85,44.85,0,8.03,5.54,12.74,13.57,12.74.04,0,.07,0,.11,0,.03,0,.05,0,.08,0,.11,0,.22-.01.33-.01.37,0,.74-.02,1.11-.04,13.36-.76,27.71-11.74,36.68-19.98-.6,2.64-.93,5.27-.93,7.85,0,10.8,8.03,18.27,17.44,18.27.04,0,.08,0,.11,0,.02,0,.05,0,.07,0,10.21,0,26.47-10.73,44.12-26.42.33,14.28,8.34,20.33,19.09,20.33.03,0,.07,0,.1,0,.03,0,.05,0,.08,0,.13,0,.26-.01.38-.02.33,0,.65-.02.98-.04,13.44-.8,28.42-13.01,37.15-21.34-.13,1.14-.22,2.27-.22,3.4,0,15.78,12.18,24.64,26.58,24.64.02,0,.04,0,.07,0,.04,0,.08,0,.12,0,32.12,0,62.57-35.71,62.57-35.71,0,0,.02-.02.02-.03,10.23-11.51,16.9-21.12,18.07-22.94.15,12.59,9.96,22.25,9.96,36.8,0,1.66-.28,3.32-.55,4.71-7.75,1.38-15.78,1.66-23.53,1.94-9.97.55-15.23,3.32-15.23,10.52,0,5.81,6.92,12.18,16.61,12.18.03,0,.06,0,.09,0s.06,0,.09,0c12.18,0,24.36-7.75,28.24-20.49,9.53-2.33,19.71-6.3,29.3-14.23-.45,2.01-.7,3.91-.7,5.64,0,9.97,6.64,16.06,16.06,16.06.04,0,.08,0,.11,0,.02,0,.05,0,.07,0,.1,0,.2-.01.3-.01.36,0,.73-.02,1.09-.05,12.58-.74,26.7-11.32,36.05-19.74-.52,2.23-.81,4.41-.81,6.51,0,10.8,7.2,15.78,14.4,15.78.04,0,.07,0,.11,0,.03,0,.05,0,.08,0,14.85,0,32.98-15.57,47.33-30.7-3.31,9.64-7.7,21.7-13.18,34.3-51.5,25.75-111.85,45.4-111.85,83.06,0,14.95,10.8,25.47,26.86,25.47.03,0,.06,0,.09,0,.03,0,.07,0,.1,0,39.04,0,71.43-57.59,91.08-105.21,14.71-7.73,28.64-15.98,40.5-25.44-3.73,6.72-5.8,11.23-5.8,12.98,0,2.49,1.94,4.15,3.88,4.15.04,0,.07,0,.11,0,.02,0,.05,0,.07,0,1.66,0,2.77-.83,4.71-3.32,29.02-34,66.05-63.86,83.8-63.95,3.27.05,5.71,2.24,5.71,5.26,0,11.91-27.13,30.18-27.13,46.24,0,8.03,5.81,13.57,14.67,13.57.03,0,.06,0,.09,0,.03,0,.06,0,.09,0,22.7,0,47.9-29.07,47.9-29.07,0,0,.02-.03.06-.08,10.2-11.49,16.86-21.07,18.03-22.89.15,12.59,9.96,22.25,9.96,36.8,0,1.66-.28,3.32-.55,4.71-7.75,1.38-15.78,1.66-23.53,1.94-9.97.55-15.23,3.32-15.23,10.52,0,5.81,6.92,12.18,16.61,12.18.03,0,.06,0,.09,0s.06,0,.09,0c12.18,0,24.36-7.75,28.24-20.49,12.46-3.04,26.02-8.86,37.93-22.7,0,0,1.38-1.66,1.38-2.77,0-1.38-1.11-2.49-2.77-2.49ZM633.24,104.27c3.82.04,6.01,2.51,6.01,4.98,0,12.7-31.35,26.76-52.39,31.79,7.48-18.77,30.35-36.69,46.39-36.77ZM519.65,141.37c-17.93,16.55-34.49,28.16-44.19,28.24-5.78-.04-10.71-4.18-10.71-11.07,0-23.78,32.04-53.63,50.87-53.71,7.11.04,10.14,3.33,11.79,6.09-3.88,11.35-6.64,21.87-7.75,30.45ZM671.72,178.47c-6.58-.03-10.42-3.34-10.42-7.2,0-6.34,13.19-3.9,30.53-6.34-3.59,8.26-11.57,13.5-20.11,13.54ZM1010.57,178.47c-6.58-.03-10.42-3.34-10.42-7.2,0-6.34,13.19-3.9,30.53-6.34-3.59,8.26-11.57,13.5-20.11,13.54Z"/>
  <path class="cls-1" d="M782.65,75.48s.05,0,.08,0c.04,0,.07,0,.11,0,4.43,0,8.3-7.2,8.3-11.07,0-2.49-1.94-3.88-4.43-3.88-.03,0-.05,0-.08,0-.04,0-.07,0-.11,0-3.88,0-8.3,6.09-8.3,10.8,0,2.77,1.94,4.15,4.43,4.15Z"/>
</svg>