<?xml version="1.0" encoding="UTF-8"?>
<svg id="Layer_1" data-name="Layer 1" xmlns="http://www.w3.org/2000/svg" viewBox="0 0 1028.68 238.98">
  <defs>
    <style>
      .cls-1 {
        fill: #0d7c76;
      }
    </style>
  </defs>
  <path class="cls-1" d="M310.43,20.31c3.6-5.54,7.48-10.8,7.48-13.01,0-1.66-.83-3.04-3.6-3.04-3.05,0-6.92,2.21-13.01,6.37-44.02,29.9-112.13,154.21-119.05,171.65,0-73.37,10.8-130.95,16.06-155.32l1.11-5.54c1.11-4.43,1.66-6.64,1.66-7.2,0-2.21-1.66-4.15-4.98-4.15-.83,0-2.49,2.21-4.98,5.81l-3.05,4.98c-3.05,4.71-6.37,10.8-10.52,17.72C136.84,108.07,77.52,231.89,0,231.89v7.09c83.06,0,143.77-129.25,188.62-205.1,0,0-13.57,62.85-14.12,142.58,0,10.52.83,16.89,3.32,16.89,4.15,0,8.03-1.11,9.69-5.26,8.31-19.38,67.83-130.68,116-171.93-14.12,24.92-45.57,131.92-45.57,201.97,0,8.21,1.07,15.12,2.93,20.86h8.6c-2.4-5.75-3.77-12.75-3.77-20.86,0-65.61,27.02-170.4,44.74-197.81Z"/>
  <path class="cls-1" d="M727.91,77.34c4.43,0,8.3-7.2,8.3-11.07,0-2.49-1.94-3.88-4.43-3.88-3.88,0-8.3,6.09-8.3,10.8,0,2.77,1.94,4.15,4.43,4.15Z"/>
  <path class="cls-1" d="M752.6,238.98c11.3-17.7,21.01-37.98,28.74-56.71,14.84-7.8,28.9-16.13,40.82-25.69-3.82,6.86-5.94,11.47-5.94,13.24,0,2.49,1.94,4.15,3.88,4.15,1.66,0,2.77-.83,4.71-3.32,29.07-34.05,66.17-63.95,83.89-63.95,3.32,0,5.81,2.21,5.81,5.26,0,11.91-27.13,30.18-27.13,46.24,0,8.03,5.81,13.57,14.67,13.57,22.7,0,47.9-29.07,47.9-29.07,0,0,.02-.03.06-.08,11.03-12.42,17.93-22.63,18.21-23.18,0,12.73,9.97,22.42,9.97,37.1,0,1.66-.28,3.32-.55,4.71-7.75,1.38-15.78,1.66-23.53,1.94-9.97.55-15.23,3.32-15.23,10.52,0,5.81,6.92,12.18,16.61,12.18,12.18,0,24.36-7.75,28.24-20.49,12.46-3.04,26.02-8.86,37.93-22.7,0,0,1.38-1.66,1.38-2.77,0-1.38-1.11-2.49-2.77-2.49-1.11,0-2.49,1.66-2.49,1.66-9.97,11.9-21.32,17.72-32.95,20.49.28-.83.28-1.66.28-2.77,0-17.17-9.97-26.58-9.97-38.48,0-11.07,12.46-20.76,12.46-23.81,0-1.94-2.77-4.43-4.98-4.43-2.77,0-7.75,6.92-12.46,15.5-4.98,8.86-13.57,21.87-24.09,33.5,0,0-.03.04-.08.11-1.49,1.74-22.75,26.2-41.44,26.2-4.98,0-8.86-3.04-8.86-8.03,0-12.46,26.85-30.73,26.85-45.4,0-6.64-4.98-11.91-12.18-11.91-20.49,0-59.25,31.56-80.29,55.93,9.69-16.89,22.98-34.33,32.95-45.68,1.94-2.21,2.77-3.04,2.77-4.15,0-1.38-2.21-3.32-3.88-3.32-3.41,0-18.77,20.35-29.98,37.6-11.86,13.22-28.78,23.91-47.26,33.55,4.15-10.24,7.48-19.93,10.24-28.24,2.77-8.86,4.71-15.23,4.71-17.17,0-1.38-2.21-2.77-3.6-2.77-1.66,0-4.15,6.37-12.18,14.95-13.57,14.67-32.12,28.79-41.25,28.79-4.98,0-8.31-3.32-8.31-9.41,0-22.15,34.05-54.82,61.19-54.82,8.3,0,11.07,4.71,11.07,8.31,0,3.32-1.38,5.26-1.38,6.37s.83,1.94,1.94,1.94c1.66,0,4.98-3.88,4.98-9.41,0-5.81-3.88-13.29-18.55-13.29-21.84,0-49.09,20.4-60.98,41.12-5.18,5.43-26.41,26.71-40.9,26.71-6.37,0-10.52-3.88-10.52-10.24,0-16.06,21.04-42.08,27.69-50.11,1.11-1.38,1.38-2.49,1.38-3.04,0-1.66-1.38-3.04-3.32-3.04-3.3,0-20.08,20.7-28.46,39.05-9.85,11.51-21.01,17.19-32.45,19.92.28-.83.28-1.66.28-2.77,0-17.17-9.97-26.58-9.97-38.48,0-11.07,12.46-20.76,12.46-23.81,0-1.94-2.77-4.43-4.98-4.43-2.77,0-7.75,6.92-12.46,15.5-4.98,8.86-13.57,21.87-24.09,33.5,0,0-.02.03-.05.06-1.04,1.23-27.97,32.89-58.64,32.89-11.35,0-18.83-6.92-18.83-17.44,0-1.66,0-3.6.28-5.26,23.26-5.54,61.19-21.04,61.19-37.38,0-6.92-5.26-11.91-13.84-11.91-17.19,0-43.25,18.67-52.21,39.55-3.16,3.61-23.29,25.79-41.09,25.79-5.81,0-12.46-3.04-12.46-15.5,0-1.66,0-3.32.28-5.54,36.82-34.88,75.58-87.21,75.58-105.76,0-8.58-5.26-13.01-12.18-13.01-21.87,0-46.79,43.47-60.63,81.12-1.94-2.21-6.37-5.81-14.95-5.81-16.47,0-40.48,17.9-51.33,38.33-1.7,1.89-24.1,26.45-41.14,26.45-5.26,0-7.75-2.21-7.75-6.92,0-12.73,26.85-31.01,26.85-44.57,0-7.2-4.43-11.07-10.52-11.07-16.06,0-65.89,40.42-85.83,62.29,0,0,9.41-19.93,15.23-27.41,35.16-27.41,99.39-76.69,99.39-100.22,0-7.48-5.26-13.57-14.12-13.57-27.96,0-60.63,46.79-87.21,97.73-11.07,21.32-24.36,49.28-24.36,52.05,0,2.21,2.49,4.15,4.43,4.15,2.21,0,4.15-2.21,6.92-5.26,22.7-24.36,71.71-62.85,84.16-62.85,2.21,0,4.15,1.38,4.15,4.15,0,11.07-26.85,28.24-26.85,44.85,0,8.03,5.54,12.74,13.57,12.74,13.88,0,29.08-11.69,38.35-20.25-.63,2.71-.98,5.41-.98,8.07,0,10.8,8.03,18.27,17.44,18.27,10.24,0,26.58-10.8,44.3-26.58.28,14.4,8.31,20.49,19.1,20.49,13.88,0,29.73-12.98,38.72-21.59-.14,1.2-.24,2.4-.24,3.6,0,15.78,12.18,24.64,26.58,24.64,32.12,0,62.57-35.71,62.57-35.71,0,0,.02-.02.02-.03,11.06-12.45,17.97-22.68,18.25-23.23,0,12.73,9.97,22.42,9.97,37.1,0,1.66-.28,3.32-.55,4.71-7.75,1.38-15.78,1.66-23.53,1.94-9.97.55-15.23,3.32-15.23,10.52,0,5.81,6.92,12.18,16.61,12.18,12.18,0,24.36-7.75,28.24-20.49,9.61-2.35,19.87-6.36,29.53-14.42-.48,2.08-.74,4.04-.74,5.84,0,9.97,6.64,16.06,16.06,16.06,13.02,0,27.98-11.24,37.67-20.01-.55,2.3-.85,4.55-.85,6.72,0,10.8,7.2,15.78,14.4,15.78,14.95,0,33.22-15.78,47.62-31.01-3.32,9.69-7.75,21.87-13.29,34.61-39.87,19.93-85.05,36.22-103.42,60.03h80.77ZM307.67,128.81h.03s-.03.01-.04.02c0,0,0-.01.01-.02ZM420.61,171.47c-5.81,0-10.8-4.15-10.8-11.07,0-23.81,32.12-53.71,50.94-53.71,7.2,0,10.24,3.32,11.9,6.09-3.88,11.35-6.64,21.87-7.75,30.45-18,16.61-34.61,28.24-44.3,28.24ZM578.41,106.13c3.88,0,6.09,2.49,6.09,4.98,0,12.74-31.56,26.86-52.6,31.84,7.48-18.83,30.45-36.82,46.51-36.82ZM616.89,180.33c-6.64,0-10.52-3.32-10.52-7.2,0-6.37,13.29-3.88,30.73-6.37-3.6,8.31-11.63,13.57-20.21,13.57ZM955.75,180.33c-6.64,0-10.52-3.32-10.52-7.2,0-6.37,13.29-3.88,30.73-6.37-3.6,8.31-11.63,13.57-20.21,13.57Z"/>
</svg>