<?xml version="1.0" encoding="UTF-8"?>
<svg id="Layer_3" data-name="Layer 3" xmlns="http://www.w3.org/2000/svg" viewBox="0 0 515 351">
  <defs>
    <style>
      .cls-1 {
        fill: #fff;
      }

      .cls-2 {
        fill: #202020;
      }

      .cls-3 {
        fill: #ff3600;
      }
    </style>
  </defs>
  <rect class="cls-3" x=".41" y=".06" width="515" height="351"/>
  <g>
    <g>
      <path class="cls-1" d="M270.51,228.29l16.48-40.85c82.62,19.74,33.39-33.1,33.39-33.1,34.8-51.78-34.72-34.77-34.72-34.77-37.26-65.06-71.86-3.54-71.86-3.54-70.04,13.3-6.52,46.82-6.52,46.82l-6.25,44.84,69.48,20.6"/>
      <g>
        <path class="cls-2" d="M268.76,226.29c-.41,1.81,1.41-.49.02,1.3-.39-.42-.62-.9-.02-1.3Z"/>
        <path class="cls-2" d="M265.14,224.99c-6.62,1.53-13.11-3.92-19.93-3.72-.77-.08.71-1.7-1.06-1.77-6.75.71-15.79-3.59-22.54-7.68l.59-.36c-1.29-.77-3.48.37-4.89-.3.09-.33.61-.33.4-.88-.67.88-2.81-.33-3.66.22-.47-.56-.18-1.33-.8-1.99l-1.18.88c-1.56,1-3.03.51-4.41-.12-.69-.32-1.35-.67-2.07-.92-.73-.25-1.52-.4-2.63-.35.41-.16.89-.25.9-.52-.72,0-1.47-.05-2.28-.13-.3-1.93-.15-4.69.08-7.55.22-2.77.51-5.53.6-8.2.38.29,1.1.62,1.62.34-1.19-.46-1.25-2.35-1.27-3.98,1.37-.54-.77-2.9.18-4.67l.26.2c-1.13-1.57,1.05-1.95-.38-3.29l1.12-.74c-1.7-.86,1.2-1.87.46-3.14h-.37c-.29-1.15.69-1.59.53-2.63l.22-.07c-.15-2.41,1.04-3.63-.36-3.77,1.23-.67.19,2.34,1.99,1.28-.06-1.43-.07-2.85-.05-4.15l.06-1.93.05-.94.03-.47.02-.23s0-.08,0-.11l-.12-.05c-1.09-.51-2.12-1.05-3.11-1.61-.5-.28-.98-.56-1.48-.87l-1.59-1c-2.15-1.39-4.22-2.88-6.24-4.42-.37-1-.7-1.49-.52-2.03-.79-.26-2.42-1.68-3.43-1.64.22.15.1-.87-.15-1.21-.66-1.35-2.22.04-2.88-1.56.71.2,1.18.03,1.41-.49-1.72-.18-2.81-1.66-4.06-2.72.34.06.69.27,1-.05-1.03-.29-1.45-1-1.78-1.71-.33-.72-.54-1.43-1.25-1.93l.99.11c-.15-1.28-.55-1.25-1.06-1.17-.49.08-1.03.2-1.17-.95.44.4.66.11,1,.07-1.05-.63-1.73-1.89-2.01-3.27-.3-1.39-.17-2.83-.14-3.97.08.16.3.17.3.17.17-1.18.69-2.31,1.34-3.34.64-1.04,1.35-2.04,2.03-3.15.91-.37,1.15,1.56,2.64-.12-.56-.61.12-1.34.69-1.99.57-.61,1.04-1.19-.06-1.56,1.9-.97,4.99-1.8,5.99-2.83-.55.93,1.66,1.43.26,2.23.5.12,1,.27,1.49.42.1.67-1.21.28-.52.89.67-.38,2.55-1.84,3.32-1.82,1.01-1.44,1.74-3.66,4.05-4.56-.92.94,1.13,1.53.46,2.03.77-1.32,1.6-2.61,2.44-3.92.78-.27.49,1.2,1.53.51-.16-.4.27-.78.54-1.21.17.05.98-.25,1.83-.36.43-.06.86-.07,1.24.03.31.11.53.33.72.7.49.54-1.02.58-.12.96,1.32-.3,1.17-.81,2.37-1.08l.14.19c.11,0,.22,0,.33-.03.05-.01.11-.03.16-.04.06,0,.1-.04.12-.11.32-.89.21-2.02-.59-2.03-.29.37.74.61.05.88-.16-.63-.15-1.22-.04-1.74.06-.26.14-.51.24-.73.05-.11.11-.22.17-.33.1-.16.2-.32.3-.48-.08.58.3.78.59,1.16.05-2.34,1.06-4.44,2.11-6.58-.58-.5.55,1.55.03,1.56,1.32-.86,2-2.26,2.73-3.6.74-1.32,1.53-2.57,2.96-2.92-.18.39-.93-.59-.76-.46,1.08-1,1.83-.15,2.22-1.1.53.41.69-.98,1.31-1.78.07-.69.4.06-.19.69.16-.33.5-.85.97-1.47.46-.62,1.07-1.34,1.8-2.01.71-.69,1.51-1.38,2.38-1.92.85-.55,1.71-1.01,2.55-1.21-.28-.31.93-2.44,1.7-2.73l.2,1.03c.9.22,2.29-1.23,2.76-.5.49-.91-.84.01-2.03.94-1.2.92-2.17,1.97-1.5,1,.45.23.88-.52,1.31-1.08.42-.58.76-1.05.85-.33,1.3-.74,2.35-2.32,4.07-1.98-.47,0-.68,1.75.43,1.25,2-.82.43-.64,2.05-1.46l.99-.7c-.14-.98,2.04-.22.99-1.15.22.37,1.02.11,1.79-.04.76-.17,1.5-.06,1.44.73l-.19,1.29c.92-.15,1.46-1.43,2.25-2.03.13.11.39.36.34.57.08-1,.69-.92,1.42-.77.73.15,1.56.36,2.26-.34,1.02.49,2.33.79,3.49,1.1,1.14.37,2.08.9,2.34,1.61,1.7-.13,3.29-.08,4.75,1.06-.41,0-.88-.15-1.15.19.38.5.68.65,1.02.71.35.05.73.01,1.23.14-.32.14,1.3,2.13,1.88,3.31,1.51.35,1.71-.77,2.21-1.22-.01,1.2.99,1.57,2.07,1.99,1.11.38,2.14.94,2.18,2.15-.56-.15-2.18-.72-1.62.45-.16,1.16.55,1.33,1.43,1.5.88.17,1.98.31,2.34,1.43l.8-1.5c-.08,1.38,2.82,1.7,1.46,2.64.92.14,1.29,2.19,2.3,1.02.57,1.79,2.04,3.3,3.23,4.84,1.1,1.57,1.97,3.12,1.39,4.75.49.25.95,1.4,1.49.76.27-1.15-1.16-.59-.84-1.17.29.33.7.18.9.1.15.54.35,1.02.16,1.18-.14.22-.42.45-1.13.52.01.94.77.91,1.47.7.72-.18,1.36-.57,1.51.27-.4.58-.48.92-.19,1.21l.23-.11c.08-.04.14-.06.25-.2.22-.25.43-.49.62-.73.65.12.05,1.47-.28,2.65.69-.34,1.5-.43,1.76-1.31.23.42.51.84.85,1.25-.36-.44-.22-.63,0-.75.06-.03.12-.05.19-.07.11-.03.22-.06.32-.08.21-.06.4-.12.51-.2l-.43.34c.26.42,1.37-.04,1.95-.26-.24-.65-1.48-.74-2.16-.82.44-.56,1.27-.58,1.88-1.24-.07,1.09,1.77.51,2.61.53.96.11.94-1.08,1.22-1.08.09.55,1.55-.07.9.78-.3.21-.79-.46-1.27.09.67.34.7,1.31,1.9.47.91-.63-.46-2.09,1.46-1.58-.47.31-.52.75-.85,1.16l1.77.41v-.98c.25.23.1.32.21.45.44-1.08,2.63-.48,2.98-1.65.9-.14,1.91.62,2.76.72l-.16.09c1.04.57,2.42.2,3.34-.41l-.06.21c.57.09,1.95.02,2.74-.49,1.44.88.13,3.7,1.86,2.67,1.44.15,2.62-1.41,2.1-2.14,1.34.57,2.87.66,4.42.98,1.53.32,3.1.92,4.08,2.25.59-.14.44-.51,1.42-.24,2.03,1.37,4.46,2.9,6.21,5.21.89,1.12,1.52,2.4,1.9,3.64.16.63.27,1.25.3,1.85,0,.6-.05,1.18-.19,1.72-.71-1.36-.97.11-1.52.21,1.02.98-.7,1.41.81,1.64.87-.2,1.34-.08,1.49-1.58.52,1.52.65,3.42.49,5.06-.17,1.63-.64,2.98-1.19,3.6.56-.62.7-.03.83.6-.67-.25-1.16.09-1.46.66-.32.56-.48,1.34-.44,2.09l.76.45-1.13.57c.08.57,1.52,1.19.24,2.16-.33-.06-.68-.11-.99.03.15,1.55.4,3.86-.93,4.87-.56.18-1.1.36-1.66.51-.17.6,0,1.89.84,1.09-.92.94-1.6,1.71-2.23,2.27l-.11.1-.07.02-.14.03c-.1.02-.2.04-.31.06-.22.03-.47.04-.77.02.57,1.02.91,1.59,1.16,2.01.69.3,1.08.52,1.37.78.07.06.14.13.2.2l.08.1.31.4c.49.65.95,1.3,1.38,1.94l-.61.26c.29,1.43,1.32-.1,1.5.92-.75,0-.5,1.59-1.72,1.18.52,1.92,2.3,1.37,3.23,2.27.81-.3-1-.55.03-.94.39.01.89,2.61,2.14,2.23-.18.69-1.18.83-1.76.88l1.14.71c-.28,1.01-1.28.61-2.29.29-1.02-.32-2.06-.56-2.47.53l.7.78c-.65,1.5-2.67-1.5-1.76.89,1.09.6,3.18.56,3.17-.61.74.95,1.54.84,2.31.78.77-.06,1.51-.06,2.07,1.21-.34,1-1.14-1.89-1.84-.93-.34,1.58,1.66,2.02,1.79,3.26-.08-1.37,1.55-.92,2.1-.17-.01,1.6-1.47-.43-.83,1.54.81.04,1.99,1.79,1.9-.03.93.09,1,.71,1.04,1.38.04.68.01,1.42.8,1.91-.49.53-1.28.04-1.96-.15-.69-.2-1.21-.19-1.23,1.04.51-.31,1.06.33,1.62.93.56.6,1.16,1.15,1.88.29-.16,1.16-1.07,1.36-1.84.66-.25.79.35,1.63.67,2.56.34.87.37,1.83-.76,1.96.36.25.71.51,1.06.78-.23.27-.45.59-.71.94-.28.34-.61.71-1.02,1.05-.21.74-.3,2.06-.65,3.1-.37,1.02-.9,1.73-1.58,1.15-.08.24-.63,1.08-1.08,1.73-.42.67-.64,1.28.3,1.19.54-.29.9-.62,1.14-.92.23-.32.35-.61.47-.86.26-.5.46-.82,1.52-.98-1,.41-1.46,1.07-1.78,1.9-.34.78-.54,1.73-.95,2.38l-.64-.34c-.44.79-2.15,1.8-2.23,2.68.35-.68-.2-.85-.82-.7-.06.43-.14.87-.24,1.31-.7.54-1.06.6-1.36.59-.29-.03-.45-.21-.62-.4-.33-.39-.67-.74-1.82-.19l.77-.7.76-.77c-.16.17-.55.12-1.01.12-.45-.02-.97-.01-1.47.33-.14,1.05-.65,2.34-.87,3.16-1.3.75-.84-.88-1.97.35.51-.5.98-.96,1.47-1.48.16-.36-1.51-1.21-3.11-.92-.97.49-2.48,2.03-.72,2.33-.87.14-2.07-.34-1.49-1.08-1.83.5.35.99-1.23,1.72-.35-.29-1.05-.63-1.8-1.01-.75-.38-1.52-.83-2.11-1.27.52-.53,1.03-1.06,1.52-1.6h-1.02c1.28-1.28-.67-.95.04-2.29-.67-.19-1.47.26-2.12.59.97,1.08.42,1.8-.34,2.49-.76.7-1.73,1.34-1.47,2.31-2.88.38-1.44-4.78-4.51-1.99.43.54-1.07,1.9.72,1.49-1.7-.35-1.36,1.84-3.3.82,1.57-.63-1.36-2.13.89-3.04-.21.62,1.13.62,1.47.46-.62-.81.32-1.92-1.36-2.11-1.05.08-2.45-.06-2.38.96-.1,1.11,1.59.08.79,1.12-2.12.11-2.23-1.61-3.36.22,1.33.03,1.51,1.2,1.38,1.96l-1.61.25.4-.69c-2.37-.9-.92,1.22-3.28.65l-.86-1.63c.75-1.12,3.34,1.1,3.23-.98-1.5-.32-2.19.64-3.52-.14.35-.12.79-.09,1.13-.21-.54-.16-.6-2.93-3.01-1.74-1.21.39-.43.66-.59,1.4-1.22-.12-2.05-.03-2.77.08-.08.02-.21.02-.24.04.03.04,0,.06-.02.08l-.11.13c-.07.08-.13.14-.19.16.1-1.51-.65-.29-.32-1.78.18.49.45.75.75.72.01,0,.05,0,.05-.01-.04-.02.04-.01.11,0,.14,0,.27,0,.41,0,.27,0,.53-.03.78-.09.49-.1.92-.3,1.2-.6-.54-1.9,1.83.61,2.67-1.08-1.91-.38-1.49-2.08-1.58-3.26-.5-.18-1.1.19-1.45.31-.43,1.01.26,1.13.09,2.22-.52-.18-1.04-.3-1.55-.36-.34-.03-.61-.01-.89.05-.53.14-.92.47-1.08.97-.42-.63-.62-1.77-.09-1.76-.88,0-1.75-.18-2.69-.47-.31.5-.6,1.03-.94,1.49,1.6.71-.27,1.77,1.09,2.29.27-.13.67-.04,1.05.25.38.28.74.75,1,1.15-.15.06-.56-.66-.87-.9.3.54-.02.32-.33.22-.3-.11-.57-.08,0,.52-.1-.5-.49-.96-1.02-1.35-.52-.4-1.2-.68-1.71-1.27.21,1.55-.77-.69-1.25.49.04.37.07.76.11,1.17.02.39-.03.95-.07,1.42-.09.98-.24,1.96-.45,2.87-2.07,1.65-2.21,5.41-2.93,7.34-1.05.74-2.22-.52-2.9.47-.48,1.28,1.94-.32.51,1.3l-.21-.3c.11.7-2.37,3.06-.53,4.46l-1.33-1.21c-.28.29-.06.77,0,1.12-.51-.19-1.14.03-1.24-.67-1.54.73-.81,2.51-1.28,3.79l1.25-.44c-.15,2.46-1.65,3.54-2.17,5.76l-.88-.43.04,1.46c-.75-.66-1.78.26-1.31,1.21l-.91-4.13c.9-.68.7,1.42,1.81,1.22.97-.17,1.51-2.2.77-2.87-.4.7-.22.82-.12,1.52-1.36-.26-.85-1.37-1.47-2.26-.11.41-.71.81-.35,1.05-.31-1.01-.09-1.82.39-3.1.14,1.06.97-.15,1.19.32-1.07-.55-.92-1.9.03-3.35,1.73-.61.37-3.28,1.46-4.96.82,1.19,1.34,2.5,1.35,3.79,1.03-.91.48-1.28,1.51-2.2-.61-.89-1.74-1.8-1.64-3.5l.86.25c.13-1.52-1.1-2.02-.18-3.65,1.59-2.78,2.82-5.82,3.83-8.03l.86.25c-.58-1.09-.17-2.61.38-4.07.55-1.49,1.21-2.89,1.38-4.44.42-.57.74-1.28,1.08-1.95,1.69.43,3.29.59,4.79.88,1.49.27,2.84.66,3.61,1.46,1.9.26,3.03.27,4.35.38,1.29.09,2.55.16,3.81.28,2.52.18,5.04.49,7.73.91l-1.05,1.19c1.08-.84.56.81,1.55.72-1.01-1.13,1.46-1.22,2.18-1.96,2.33,1.18,5.5.15,7.41-.89l.13.89c.49-.44,1-.7,1.52-.85.53-.14,1.07-.17,1.63-.17,1.12.03,2.32.2,3.42-.02.34.27,1.06.93,1.63.55.15-.44.23-.8.31-1.08.09-.28.19-.5.26-.72.15-.42.36-.83.37-1.5.23-.29.6-.63.94-1.05.34-.42.66-.91.96-1.34-.88-1.77-1.68-4.06-2.8-6.46-1.12-2.4-2.56-4.93-4.68-7.03l.64-.94c-.8-.55-1.53-1.18-2.23-1.85-.35-.34-.69-.68-1.02-1.04l-.49-.54-.24-.28-.34-.4c-2.21-2.68-4.64-5.4-6.85-7.93,2.21-3.37,4.33-6.43,5.63-9.51.37.55.76,1.07,1.16,1.57.11-.12.21-.24.31-.37l.25-.33c.12-.17.22-.34.31-.53.17-.37.26-.76.25-1.12,0-.73-.32-1.34-.97-1.47.62-.54.82-1.48,1.11-2.29.28-.81.58-1.5,1.46-1.64.86-1.25-.09-1.98.04-3.14.75-1.2,1.09-2.05,1.25-2.88.15-.81.13-1.63-.03-2.58l-.13.48c.39.22,1.15.31,1.27-.24-.23-.41-.15-1.09-.31-1.52-.15-.45-.51-.56-1.48-.07.23-.42.19-.81.04-1.12-.18-.3-.43-.55-.77-.75-.63-.42-1.43-.8-2.03-2.02-.08.6-.63.49-.97.77-.86-.35-1.83-.94-2.91-1.35-1.07-.41-2.22-.63-3.26-.25-.37-.33.75-.92-.28-1.09-.64.16-.09.76-.87,1.01-2.1.39-4.23.07-6.43-.23-2.19-.31-4.42-.6-6.46-.24-1.88.51-3.78.95-5.68,1.38-3.6.69-7.3,1.67-10.95,2.52-1.75-2.76-3.43-5.63-5.11-8.39l-.63-1.04-.31-.52-.15-.24-.09-.13-.73-1.05c-.49-.69-.98-1.38-1.46-2.06l.4-.18c-.67-.24-1.1-.72-1.44-1.26-.36-.52-.62-1.15-.9-1.75-.56-1.19-1.14-2.36-2.68-2.21-.05-.65-1.21-1.61-.34-1.87-.52-.14-.93-.48-1.31-.93-.19-.22-.37-.49-.56-.75-.19-.25-.39-.51-.59-.77-.4-.53-.84-1.08-1.34-1.53-.25-.22-.52-.44-.82-.58-.31-.13-.64-.22-.99-.26.15.17.31.17.63.19-.69-1.08-1.66-1.82-2.68-2.35-.52-.25-1.03-.51-1.52-.83-.25-.16-.49-.34-.72-.54-.24-.17-.48-.35-.71-.58.31-.06.78,0,1.05-.34-.25-.57-.99-.41-1.58-.36-.59.05-1.03-.02-.9-1.08-.53-.15-.73.86-.41.89-2.31-1.31-5.04-1.69-7.63-1.31-2.61.37-5.08,1.47-7.47,2.8-2.04.33-2.56-.4-2.75-.88-.2-.48-.17-.73-1.26.83-.45-.2.24.78-.03.44-.42.56-1.15.37-1.83.22-.68-.15-1.31-.27-1.39.44,1.06.8-.1.94.35,1.59-1.31.51-2.29.63-3.04.95-.75.31-1.34.72-1.8,1.86l-.34-.6c-.32,1.58-1.13,2.75-1.88,3.91-.72,1.19-1.37,2.37-1.22,3.91-1.04,1.33-2.02,2.72-2.93,4.12-.22.35-.46.7-.67,1.05l-.47.75c-.22.35-.44.7-.65,1.07-.84,1.45-1.66,2.93-2.47,4.4-1.29.32-2.61.6-3.93.9l-1.98.45-1.02.24-.36.09-.25.07c-1.35.36-2.67.76-3.97,1.16-2.6.82-5.11,1.72-7.45,2.73-2.33,1-4.5,2.12-6.24,3.28-1.76,1.14-2.93,2.42-3.23,3.02-.24.35-.27.33-.28.51-.04.16.05.71.42,1.52.74,1.66,2.59,3.94,4.79,6.03,2.21,2.13,4.83,4.2,7.55,6.22l2.08,1.51,1.06.75.53.37.32.22.52.34c.64.43,1.47.95,2.25,1.43.78.48,1.58.96,2.39,1.42,1.59.93,3.18,1.85,4.77,2.78-.03.25-.09.53-.13.81-1.42,3.83-2.09,5.52-2.46,7.33-.35,1.62-.51,4.21-.38,5.8-.26-.2-.29-.45-.59-.23,1.4.4-.25,2.79,1.06,3.35-1.05,5.61-1.39,10.87-2.19,16.68-.02-.94-1.13-1.56-1.19-.46l.75,1.27-.42.13c.11.78.7,1.69,1.26.98-.07,1.3-.17,2.59-.3,3.87l-.21,1.92-.12.96-.06.45h0c.01-.06-.07-.1-.22,0-.13.09-.21.24-.16.43l.02.07v.02s.21.08.21.08l.41.16,1.66.63,3.31,1.24c4.42,1.64,8.85,3.19,13.38,4.41,3.12,1.55,7.95,2.41,11.6,3.18,10.04,4.98,19.14,9.29,30.27,11.19,0,0-2.46,3.15-7.14,2.66Z"/>
        <path class="cls-2" d="M269.45,224.19c.82-.09,1.66-1.14,2.17.17-.67-.14-1.62.19-2.17-.17Z"/>
        <path class="cls-2" d="M288.82,195.99c-.17-.14.34-.06.45-.02-.03.22.44.68.06.61.02-.19-.29-.34-.51-.59Z"/>
        <path class="cls-2" d="M291.27,193.85c.12.55-.14.92-.33,1.07-.02.11-.02.24-.04.32-.03-.17-.07-.38-.08-.55.08-.3.23-.58.45-.84Z"/>
        <path class="cls-2" d="M295.84,197.49c.62.67.37.93-.6.72,0-.35.35-.45.6-.72Z"/>
        <path class="cls-2" d="M296.7,196.17c.7.11.97.54,1.25.96.07-.54-1.68.05-1.25-.96Z"/>
        <path class="cls-2" d="M315.29,200.2c.49-.04,1.51-.54,1.98.15-.52-.47-2.36.78-1.98-.15Z"/>
        <path class="cls-2" d="M324.88,198.66c.33-.01.48.1.84-.16.67.15.1.77-.41.91l-.43-.75Z"/>
        <polygon class="cls-2" points="274.51 96.6 275.44 97.04 274.89 97.39 274.51 96.6"/>
        <path class="cls-2" d="M212.66,108.97c-.21,1-.87.2-1.04.28.44-.74.47.7,1.04-.28Z"/>
        <polygon class="cls-2" points="184.64 125.26 184.85 125.06 185.61 126.13 184.64 125.26"/>
      </g>
    </g>
    <g>
      <polygon class="cls-1" points="276.94 229.19 198.96 204.27 188.81 239.81 265.42 261.42 276.94 229.19"/>
      <g>
        <path class="cls-2" d="M275.68,231.28c.9-.02-.09-1.21.68-.31-.27.46-.54.78-.68.31Z"/>
        <path class="cls-2" d="M274.44,231.31c2.23,3.72-2.18,5.99-1.18,9.54.02.38-1.7-.7-1.55.2,1.47,3.62-1.54,7.43-4.63,10.1l-.41-.38c-.58.49.74,1.92.32,2.38-.32-.14-.39-.37-.86-.43.9.55.09,1.18.67,1.84-.44,0-1.13-.49-1.6-.51.3.34.59.69.88,1.05,1,1.39.69,2.09.29,2.56-.41.51-.91.75-.67,2.23-.16-.37-.26-.73-.48-.91.07.71.08,1.41.04,2.11-.75.24-1.86.13-3.02-.05-1.17-.18-2.39-.42-3.62-.5.16-.39.29-1.14.18-1.66-.2,1.24-1.15,1.3-2.02,1.3-.03-1.34-1.57.77-2.23-.15l.15-.25c-.99,1.11-.72-1-1.66.4l-.12-1.08c-.76,1.66-.65-1.15-1.42-.42l-.08.36c-.61.29-.61-.66-1.15-.49v-.21c-1.17.16-1.52-.98-1.87.38-.07-1.19,1.16-.2,1.03-1.94-3.88.41-7.39-.87-10.9-1.84-.25-.66-.45-.89-.4-1.43-.43.17-1.39-.12-1.9.48.12,0-.03-.76-.2-.88-.49-.69-1.12,1.29-1.65.49.38-.28.6-.69.65-1.22-.9.89-1.65.49-2.45.64.17-.2.38-.28.48-.72-1.11.98-1.34-.65-2.23-.08l.47-.71c-.82-1.26-.78,1.54-1.57.72.3-.18.3-.51.43-.82-1.28,1.17-2.57.3-3.58.54.08-.09.13-.31.13-.31-1.01-.09-1.88-.82-3.1-.49-.28-.46.66-1.87-.43-1.87-.41,1.58-1.9.16-1.8,2.1-.79-.5-1.99-1.47-2.72-1.1.56-.49.12-2.04.88-1.97l-.27-1.1c.26-.62.5.37.55-.48-.38-.04-1.6.29-1.85-.06-.94.78-2.06,2.39-3.19,2.29.68-.47.2-1.81.62-1.98l-2.35,2.58c-.38-.03.27-1.26-.36-1-.09.42-.39.61-.64.91-.08-.22-1.6-.03-1.32-1.62.01-.65.68-.16.43-.82-.67-.17-.85.35-1.52.18l.05-.21c-.37-.35-1.48.3-1.24,1.28.29.14.15-.96.47-.39-.56.81-1.4.84-2.07.67.3-.19.39-.61.6-1.02-1.23.96-2.29,1.08-3.42,1.31-.22.73.75-1.23.78-.8-.99-1.38-3.04.7-3.68-1.09.21-.08-.2,1.07-.15.86-.59-.27-.26-1.32-.77-1.04.14-.64-.56.06-1.02.13-.34.39-.02-.33.36-.3-.36.19-1.19.36-2.05.32-.22,0-.44-.03-.65-.07-.29-.06-.62-.15-.92-.25-.6-.2-1.14-.47-1.51-.82-.12.41-1.99,1.08-2.49.89l.75-.83c-.06-.64-1.58-.36-1.09-1.11-.89.38.22.43,1.24.41,1.02-.02,1.95-.1,1.11.16.05-.42-.57-.18-1.13,0-.56.19-1.03.33-.47-.22-.86-.2-2.6.48-2.75-.54.14.21,1.76-.95,1.06-1.07-1.3-.18-.71.3-1.99.29l-1.01.14c-.97.74-1.02-.42-1.61.55.67-.65-2.49-.19-.56-1.33l1.58-.88c-.58-.06-2.34.74-3.47,1.01.07-.11.23-.33.51-.46-.76.42-1.17.53-1.44.5,0-.39,1.02-1.53-.1-1.39.58-.81.82-1.58,1.11-2.31.29-.72.64-1.39,1.41-1.85-.43-.66-.94-1.42-.18-2.55.14.19.12.46.56.45.8-.72.29-.78.12-1.35.28.09,1.57-1.34,2.45-1.89-.37-.84-1.5-.71-2.13-.86,2.14-.48-.44-2.99,1.4-3.06.2.28.66,1.14,1.27.77,2.01-.02-1.05-1.5.09-2.14l-1.6-.22c1.07-.12-.52-1.56,1.03-1.02-.47-.46.81-.9-.72-1.23,1.69-1.1.25-3.77,3.19-3.9-.19-.28.22-.73-.59-.84-.94.11.46.66-.15.62,0-.2-.39-.36-.59-.44.47-.36.68-.68,1.81.1,1.22-.74-2.25-1.77-1.3-2.89.6.24.87.21.88-.2l-.86-1.02c.48-.76,1.55-.07,2.61.21-.06-.5.15-1.02-.58-1.45l1.48-.16c-1.07.12-.53-.55-.73-.83l.2.28c.47.04.34-.55.28-.84-.67-.13-1.08.32-1.35.56-.4-.36-.19-.68-.65-1.14.5.2.74.07.87-.15.15-.26.24-.76.36-.98.38-.5-.7-1.04-.61-1.22.52.21.38-.98.95-.16.11.27-.63.25-.28.78.5-.25,1.37.23.95-.86-.31-.85-1.96-.84-1-1.74.14.47.51.74.79,1.17.27-.27.53-.52.8-.76l-.84-.6c.26,0,.3.15.44.15-.8-.94.2-1.85-.69-2.93.09-.69.91-.74,1.15-1.17l.04.17c.65-.17.58-1.31.24-2.54l.15.24c.16-.29.29-1.29,0-2.4.81-.15,2.75,3.83,2.13,1.51.2-.82-.84-3.58-1.37-3.99.03-.03.07-.07.1-.11,1,.58,1.72.56,2.55.71.82.14,1.73.44,2.74,1.53.11-.38-.13-.72.32-.82,1.35.63,2.64.74,3.97,1.06,1.31.32,2.64.84,3.45,2.11-.78.18-.21.96-.31,1.51.72-.69.43,1.09.97-.31.16-.88.34-1.27-.32-1.86,2.03.15,3.09.49,3.45,1.47-.14-.48.15-.67.44-.85-.5,1.32.14,1.75.82,1.44l.34-.8.08.95c.29-.2.77-1.64,1.05-.69-.07.32-.15.66-.12.92.76-.49,1.9-1.38,2.28-.5l.11,1.35c.3-.05.95-.63.62-1.12.79,1.05,1.41,1.34,1.41,2.48,2.56-1.96,5.13-1.24,7.11-.41l-.26.59c.36.75.63-.98.87-.43-.36.53.01,1.4-.65,1.98.58.9,1.35-.74,1.95-.85.33-.78-.57.38-.15-.6.18-.26.88.97,1.39-.21.04.54-.4,1.39-.66,1.85l.67-.44c.13,1.61-2.15,2.11-2.09,4.06l.5-.05c.01,1.41-1.63,1.07-.66,1.85.67-.45,1.65-2.08,1.39-2.75,1.11-.02,1.39-2.75,2.43-2.31.07.81-.92-.1-1.03.97.19,1.14,1.19-.22,1.53.26-.35-.62.46-1.71.86-1.83.36.75-.72,1.04.01,1.41.35-.66,1.23-.96.77-1.65.79-1.5.67.7,1.48-.4-.1,1.2-1.63,2.34-.95,3.17.21-1.13,1.52-1.13,1.58-2.88.23.42,0,1.28-.46,1.86.27.82,1.79-1.6,1.26.59l.52-1.05c.03.41.16.75.21,1.42.41.15,1.83-1.06,1.26.59.19-.13,1.12.25,1.12-1.02-.37-.89-.95.62-.79-1.04.01,1.41.91.11,1.39-.2l-.15.66c.29-.18.71.1,1.06-.55-.28.32-.33.78-.22.99l.53-.91c.99-.22-.35,1.79.55,1.76l-.86.56c.19-.12.17.88.66.7.44-.85,1.06-1.83,1.42-2.48.58-.25-.12,1.07.63.3l-.93.89c-.18.27-.07,1.61.54,1.78.49-.18,1.51-1.28,1.05-1.97.31.08.57.77.11,1.34.79-.09.22-.99.99-1.36.05.67.55,1.77.73,2.78l-1.1,1.3.41.15c-.92,1.03-.02,1-.73,2.17.22.29.7-.03,1.08-.27-.18-2.29,1.82-2.47,2.17-4.4,1.3-.14-.73,4.72,1.38,2.21-.04-.54.97-1.77.08-1.47.64.43,1.07-1.7,1.66-.67-.86.56.06,2.09-1.18,2.9.26-.59-.35-.62-.54-.49.07.8-.65,1.84.07,2.07.5-.04,1.11.12,1.33-.87.32-1.06-.71-.1-.09-1.08,1-.09.63,1.57,1.59-.19-.6-.03-.39-1.17-.15-1.89l.79-.23-.35.66c.87.84.71-1.18,1.66-.67l.03,1.54c-.62,1.12-1.29-1-1.73,1.01.63.29,1.16-.63,1.61.07-.19.12-.39.11-.58.24.21.14-.38,2.8,1.04,1.58.67-.43.35-.65.59-1.38,1.12.11,1.67-.53,2.38-.43-.59,1.38,1.15.52-.06,1.74-.08-.94-1.62-1.35-2.42-.11-.16,1.81-.75-.5-1.52,1.13.83.31.26,1.95.05,3.09.21.15.58-.24.78-.36.43-.99.12-1.07.44-2.13.85.58,1.94.29,2.77-.54.15.61-.27,1.6-.68,1.57,1.21.05,2.36.57,3.32,1.22-.15-1.89,1.31-.02,1.28-1.55-.45-.56-.56-1.9,0-2.55.32.22-.24.73-.21,1.13.74-.77.24,1.69,1.14.39-1.19.21-.85,1.97-1.45,3.22.97-.5-.33.92.4,1.15.97-.49,2.05-.78,2.95-.8.63,1.57,2.58.85,3.51,1.09.27.81-.53,2.19-.09,2.61.62.16.06-1.74.74-.77l-.18.27c.38-.26,1.33,1.53,2.28-.51l-.79,1.52c.12.2.4-.12.59-.24-.16.52-.12,1.06-.5,1.31.2,1.28,1.22.2,1.84.35l-.09-1.07c1.27-.41,1.67.75,2.77.74l-.33.92.77-.36c-.43.85-.07,1.61.48.95l-2.27,1.78c-.26-.68.83-.97.85-1.97.03-.87-.98-.92-1.42-.07.32.22.4.02.79-.23-.3,1.33-.82,1.11-1.36,1.88.2,0,.34.48.51.09-.57.51-.97.49-1.58.33.57-.37.03-.87.31-1.19-.41,1.12-1.1,1.28-1.75.73-.12-1.48-1.68.39-2.44-.25.72-1.04,1.47-1.82,2.15-2.11-.36-.75-.62-.16-.98-.92-.54.77-1.15,2.03-2.03,2.32l.23-.86c-.78.23-1.19,1.48-1.93.98-1.28-.87-2.73-1.33-3.77-1.78l.23-.86c-1.18,1.62-2.21.03-3.27.58-1.11-1.25-3.24-.14-3.47-1.83-2.63-.12-4.94-.16-7.35-1.27l.82-1.1c-.74.76-.06-.8-.56-.76.19,1.15-1.02,1.09-1.57,1.74-.81-1.31-2.58-.73-3.84-.18l.23-.86c-1.51,1.27-2.26-.5-3.42-1.16-.03-.4,0-1.27-.4-1.29-1.11,1.16-1.44.95-2.7,1.49-.72-.23-1.79-.95-2.35-1.71-3.34,1.06-5.72-1.06-8.92-.81l.11-1.06c-3.42,1.25-6.18-1.76-8.87-1.41l.77-1.63c-.57-.76-1.82-.09-2.02,1.18-.57-.76-2.1.24-2.12-1.31-.65-.56-1.17.49-1.87.52-1.28-1.12-1.96-1.17-3.38-1.28,0,.04.18.14.27.2.28-.32.52-1.05.2-1.27-.21.06-.21.1-.32.07-.08-.01-.16-.05-.24-.03-.17.04-.27.31-.36,1.4-.1-.68-.43-.52-.62-.38-.22.14-.31.26-.82-.78.24.69.18.79.31,1.24-.15-.03-.63-.73-.9-.88-.05.07-.02.29.19.74-.23-.27-.68-1.24-.77-1.14.13.34.55.86.76,1.31.34.8.1.62-.29.6-.38-.06-.91.03-.87.4.09.2.17.32.21.51-.04.47-.1.93-.17,1.39-.15.92-.37,1.82-.61,2.72-.49,1.78-1.08,3.52-1.47,5.23l-.4-.16c1.25,1.58-2.37,2.19-.25,3.76-.47.15-.48.97-1.21.54.43.61-.01,1.16-.43,1.78-.21.31-.41.63-.5.98-.04.17-.06.37-.02.54.06.07.17.15.34.23.05-.02-.03-.06-.2-.14-.51.07-.49.32-.44.5.04.2.12.35-.41.63-.19-.02-.31-.09-.76-.07-.47.16-.03.25.27.29.29.05.43.08-.74.41-.02.13,1.14-.21,1.09-.25-.51.53-.62,1.07-.5,1.39.97,0,2-.28,2.57-.4-.15.6-.53,1.4-.85,1.85-.31.45-.4.61.38.03-.12.38.41-.71.22-.32.26-.23.11.33.04.85-.08.51-.08.98.21.5.14-.62.23-.78.31-.88.04-.11.25-.1.34-.48,1.16,1.18,1.13,2.36,2.48,1.74l-.26.62c1.79-1.46,3-.07,4.67-1.86,7.16,1.61,14.26,2.35,21.21,4.05,6.69,2.32,13.61,3.25,20.21,6.31,1.14,2.15,1.28,2.14,3.25,1.95-.15.25-.28.28-.23.57.48-1.36,1.29.22,1.83-1.05,1.24.49,2.48.81,3.73,1.09,1.13.25,3.04.68,2.64.56-.04.15-.32,1.29-.19,1.23.08-.3.15-.59.2-.9l-.02.41c.09-.2.12-.93.12-1.4.04-.41-.15-.43,0-.16.13.29.47.59.85.54.09,0,.18-.03.27-.08l.03-.02s.01.01.05-.08l.19-.39.36-.77c.47-1.04.88-2.09,1.2-3.18,1.1-1.3,1.35-3.62,1.65-5.35,3.54-4.19,6.56-8.03,7.05-13.39,0,0,3.28,1.89,3.36,4.21Z"/>
        <path class="cls-2" d="M274.66,231.11c.05-.74-.4-1.3.34-2.07-.15.66-.09,1.48-.34,2.07Z"/>
        <path class="cls-2" d="M261.73,219.19c-.08.2-.13-.35-.14-.48.2,0,.56-.51.6-.11-.21,0-.28.32-.46.58Z"/>
        <path class="cls-2" d="M257.97,217.54c.25-.59,1.24-.81,1.75-.73l-1.75.73Z"/>
        <path class="cls-2" d="M255.16,213.87c-.15-.62.03-.87.45-.72-.07.33-.26.45-.45.72Z"/>
        <path class="cls-2" d="M254.46,215.18c-.31-.08-.34-.49-.38-.89-.16.53.8-.11.38.89Z"/>
        <path class="cls-2" d="M247.17,210.89c-.2-.01-.78.36-.74-.37.05.54,1.17-.48.74.37Z"/>
        <path class="cls-2" d="M243.22,210.65c-.11-.08-.12-.21-.31-.08-.13-.35.24-.72.45-.72l-.14.8Z"/>
        <polygon class="cls-2" points="187.27 227.65 187.08 227.16 187.67 227.4 187.27 227.65"/>
        <path class="cls-2" d="M206.09,249.66c.51-.28.11.66.15.77-.38-.04.35-.72-.15-.77Z"/>
        <polygon class="cls-2" points="222.83 251.06 222.7 251.04 223.1 249.79 222.83 251.06"/>
      </g>
    </g>
  </g>
</svg>